<?xml version="1.0" encoding="utf-8"?>
<?xml-stylesheet type="text/xsl" href="rss1.xsl"?>
<rss version="2.0" xmlns:atom="http://www.w3.org/2005/Atom" xmlns:content="http://purl.org/rss/1.0/modules/content/" xmlns:dc="http://purl.org/dc/elements/1.1/" xmlns:media="http://search.yahoo.com/mrss/">
<channel>
 <title>Getty</title>
 <link>http://www.gettyimg.com/</link>
 <atom:link href="http://www.gettyimg.com/" rel="self" type="application/rss+xml" />

 
                <item>
                <title><![CDATA[【Cinema Center】MOVIE - 주먹왕 랄프 2: 인터넷 속으로 (2018) (KOR-ENG) (720p DSNP WEB-DL)]]></title>
                <link><![CDATA[https://sharemania.us/threads/%EC%A3%BC%EB%A8%B9%EC%99%95-%EB%9E%84%ED%94%84-2-%EC%9D%B8%ED%84%B0%EB%84%B7-%EC%86%8D%EC%9C%BC%EB%A1%9C-2018-kor-eng-720p-dsnp-web-dl.233718/]]></link>
                <description><![CDATA[<article>
<blockquote class="messageText SelectQuoteContainer ugc baseHtml">
<div class="bbCodeBlock bbCodeCode">
<div class="type">Code:</div>
<pre>General
Unique ID                                : 294255504249088091598988619241936621659 (0xDD5F8C772BD4B9B2BFDDC2669437905B)
Complete name                            : Ralph.Breaks.the.Internet.2018.KOR-ENG.720p.DSNP.WEB-DL.mkv
Format                                   : Matroska
Format version                           : Version 4
File size                                : 2.60 GiB
Duration                                 : 1 h 52 min
Overall bit rate mode                    : Variable
Overall bit rate                         : 3 308 kb/s
Frame rate                               : 23.976 FPS
Movie name                               : 주먹왕 랄프 2: 인터넷 속으로
Encoded date                             : 2023-12-10 03:02:23 UTC
Writing application                      : mkvmerge v68.0.0 ('The Curtain') 64-bit
Writing library                          : libebml v1.4.2 + libmatroska v1.6.4

Video
ID                                       : 1
Format                                   : AVC
Format/Info                              : Advanced Video Codec
Format profile                           : High@L3.1
Format settings                          : CABAC / 4 Ref Frames
Format settings, CABAC                   : Yes
Format settings, Reference frames        : 4 frames
Codec ID                                 : V_MPEG4/ISO/AVC
Duration                                 : 1 h 52 min
Bit rate mode                            : Variable
Bit rate                                 : 3 180 kb/s
Maximum bit rate                         : 6 375 kb/s
Width                                    : 1 280 pixels
Height                                   : 720 pixels
Display aspect ratio                     : 16:9
Frame rate mode                          : Constant
Frame rate                               : 23.976 (24000/1001) FPS
Color space                              : YUV
Chroma subsampling                       : 4:2:0
Bit depth                                : 8 bits
Scan type                                : Progressive
Bits/(Pixel*Frame)                       : 0.144
Time code of first frame                 : 00:00:00;00
Stream size                              : 2.50 GiB (96%)
Default                                  : Yes
Forced                                   : No
Color range                              : Limited
Color primaries                          : BT.709
Transfer characteristics                 : BT.709
Matrix coefficients                      : BT.709

Audio
ID                                       : 2
Format                                   : AAC LC
Format/Info                              : Advanced Audio Codec Low Complexity
Codec ID                                 : 2 / A_AAC-2
Duration                                 : 1 h 52 min
Bit rate                                 : 125 kb/s
Channel(s)                               : 2 channels
Channel layout                           : L R
Sampling rate                            : 48.0 kHz
Frame rate                               : 46.875 FPS (1024 SPF)
Compression mode                         : Lossy
Stream size                              : 101 MiB (4%)
Title                                    : Korean
Language                                 : Korean
Default                                  : Yes
Forced                                   : No

Text #1
ID                                       : 3
Format                                   : UTF-8
Codec ID                                 : S_TEXT/UTF8
Codec ID/Info                            : UTF-8 Plain Text
Duration                                 : 1 h 51 min
Bit rate                                 : 90 b/s
Frame rate                               : 0.367 FPS
Count of elements                        : 2460
Stream size                              : 73.9 KiB (0%)
Title                                    : English [CC]
Language                                 : English
Default                                  : No
Forced                                   : No

Text #2
ID                                       : 4
Format                                   : UTF-8
Codec ID                                 : S_TEXT/UTF8
Codec ID/Info                            : UTF-8 Plain Text
Duration                                 : 1 h 50 min
Bit rate                                 : 1 b/s
Frame rate                               : 0.011 FPS
Count of elements                        : 72
Stream size                              : 1.49 KiB (0%)
Title                                    : ko--forced--
Language                                 : Korean
Default                                  : No
Forced                                   : No

Text #3
ID                                       : 5
Format                                   : UTF-8
Codec ID                                 : S_TEXT/UTF8
Codec ID/Info                            : UTF-8 Plain Text
Duration                                 : 1 h 51 min
Bit rate                                 : 70 b/s
Frame rate                               : 0.289 FPS
Count of elements                        : 1938
Stream size                              : 58.0 KiB (0%)
Title                                    : Korean
Language                                 : Korean
Default                                  : Yes
Forced                                   : No</pre>
</div>
<div class="messageTextEndMarker">&nbsp;</div>
</blockquote>
</article>]]></description>
                <author><![CDATA[Austin Zimmermann]]></author>
                </item>

                </channel></rss>